<mxfile host="app.diagrams.net" modified="2022-09-08T03:12:02.876Z" agent="5.0 (Windows NT 10.0; WOW64) AppleWebKit/537.36 (KHTML, like Gecko) Chrome/86.0.4240.198 Safari/537.36" etag="QHXEo306js1rC5oKe5I4" version="20.3.0" type="github">
  <diagram id="l9ATXhiv8Rob6Y_cUNgy" name="页-1">
    <mxGraphModel dx="1359" dy="781" grid="1" gridSize="10" guides="1" tooltips="1" connect="1" arrows="1" fold="1" page="1" pageScale="1" pageWidth="827" pageHeight="1169" math="0" shadow="0">
      <root>
        <mxCell id="0" />
        <mxCell id="1" parent="0" />
        <mxCell id="gvbPoHorT-MvjRSvkrZN-1" value="流程图" parent="0" />
        <mxCell id="gvbPoHorT-MvjRSvkrZN-2" style="vsdxID=9;fillColor=none;gradientColor=none;strokeColor=none;shadow=1;points=[[0,0.94,0],[0,0.88,0],[0,0.81,0],[0,0.75,0],[0,0.69,0],[0,0.62,0],[0,0.56,0],[0,0.5,0],[0,0.44,0],[0,0.37,0],[0,0.31,0],[0,0.25,0],[0,0.19,0],[0,0.12,0],[0,0.06,0],[1,0.94,0],[1,0.88,0],[1,0.81,0],[1,0.75,0],[1,0.69,0],[1,0.62,0],[1,0.56,0],[1,0.5,0],[1,0.44,0],[1,0.37,0],[1,0.31,0],[1,0.25,0],[1,0.19,0],[1,0.12,0],[1,0.06,0]];labelBackgroundColor=none;rounded=0;html=1;whiteSpace=wrap;" vertex="1" parent="gvbPoHorT-MvjRSvkrZN-1">
          <mxGeometry x="40" y="40" width="1400" height="1160" as="geometry" />
        </mxCell>
        <mxCell id="gvbPoHorT-MvjRSvkrZN-3" style="vsdxID=10;fillColor=#4f88bb;gradientColor=none;fillOpacity=0;shape=stencil(nZBLDoAgDERP0z3SIyjew0SURgSD+Lu9kMZoXLhwN9O+tukAlrNpJg1SzDH4QW/URgNYgZTkjA4UkwJUgGXng+6DX1zLfmoymdXo17xh5zmRJ6Q42BWCfc2oJfdAr+Yv+AP9Cb7OJ3H/2JG1HNGz/84klThPVCc=);strokeColor=#bfbfbf;shadow=1;points=[[0.06,1,0],[0.13,1,0],[0.19,1,0],[0.25,1,0],[0.31,1,0],[0.37,1,0],[0.44,1,0],[0.5,1,0],[0.56,1,0],[0.63,1,0],[0.69,1,0],[0.75,1,0],[0.81,1,0],[0.88,1,0],[0.94,1,0],[0.06,0,0],[0.13,0,0],[0.19,0,0],[0.25,0,0],[0.31,0,0],[0.37,0,0],[0.44,0,0],[0.5,0,0],[0.56,0,0],[0.63,0,0],[0.69,0,0],[0.75,0,0],[0.81,0,0],[0.88,0,0],[0.94,0,0]];labelBackgroundColor=none;rounded=0;html=1;whiteSpace=wrap;" vertex="1" parent="gvbPoHorT-MvjRSvkrZN-2">
          <mxGeometry width="1400" height="1160" as="geometry" />
        </mxCell>
        <mxCell id="gvbPoHorT-MvjRSvkrZN-4" value="&lt;div style=&quot;font-size: 1px&quot;&gt;&lt;font style=&quot;font-size:22.58px;font-family:SimSun;color:#feffff;direction:ltr;letter-spacing:0px;line-height:120%;opacity:1&quot;&gt;注册&lt;br/&gt;&lt;/font&gt;&lt;/div&gt;" style="verticalAlign=middle;align=left;vsdxID=11;fillColor=#4f88bb;gradientColor=none;shape=stencil(nZBLDoAgDERP0z3SIyjew0SURgSD+Lu9kMZoXLhwN9O+tukAlrNpJg1SzDH4QW/URgNYgZTkjA4UkwJUgGXng+6DX1zLfmoymdXo17xh5zmRJ6Q42BWCfc2oJfdAr+Yv+AP9Cb7OJ3H/2JG1HNGz/84klThPVCc=);strokeColor=#bfbfbf;shadow=1;points=[[0.06,1,0],[0.13,1,0],[0.19,1,0],[0.25,1,0],[0.31,1,0],[0.37,1,0],[0.44,1,0],[0.5,1,0],[0.56,1,0],[0.63,1,0],[0.69,1,0],[0.75,1,0],[0.81,1,0],[0.88,1,0],[0.94,1,0],[0.06,0,0],[0.13,0,0],[0.19,0,0],[0.25,0,0],[0.31,0,0],[0.37,0,0],[0.44,0,0],[0.5,0,0],[0.56,0,0],[0.63,0,0],[0.69,0,0],[0.75,0,0],[0.81,0,0],[0.88,0,0],[0.94,0,0]];labelBackgroundColor=none;rounded=0;html=1;whiteSpace=wrap;" vertex="1" parent="gvbPoHorT-MvjRSvkrZN-2">
          <mxGeometry width="1400" height="60" as="geometry" />
        </mxCell>
        <mxCell id="gvbPoHorT-MvjRSvkrZN-5" style="vsdxID=12;fillColor=#44749f;gradientColor=none;fillOpacity=0;shape=stencil(nZBLDoAgDERP0z3SIyjew0SURgSD+Lu9kMZoXLhwN9N5bdMClrNpJg1SzDH4QW/URgNYgZTkjA4UkwJUgGXng+6DX1zLfmoymdXo1zxh5z6RO6Q42BWCfc2oJfdAr/AX/IH+BF/rk7hv7MjaZ/L+RirxJ1Gd);strokeColor=#2d4d6a;strokeWidth=2;shadow=1;points=[];labelBackgroundColor=none;rounded=0;html=1;whiteSpace=wrap;" vertex="1" parent="gvbPoHorT-MvjRSvkrZN-1">
          <mxGeometry x="60" y="100" width="1380" height="1100" as="geometry" />
        </mxCell>
        <mxCell id="gvbPoHorT-MvjRSvkrZN-6" style="vsdxID=6;fillColor=none;gradientColor=none;strokeColor=none;strokeWidth=2;shadow=1;points=[];labelBackgroundColor=none;rounded=0;html=1;whiteSpace=wrap;" vertex="1" parent="gvbPoHorT-MvjRSvkrZN-1">
          <mxGeometry x="60" y="100" width="260" height="1100" as="geometry" />
        </mxCell>
        <mxCell id="gvbPoHorT-MvjRSvkrZN-7" style="vsdxID=7;fillColor=#4f88bb;gradientColor=none;fillOpacity=0;shape=stencil(nZBLDoAgDERP0z3SIyjew0SURgSD+Lu9kMZoXLhwN9O+tukAlrNpJg1SzDH4QW/URgNYgZTkjA4UkwJUgGXng+6DX1zLfmoymdXo17xh5zmRJ6Q42BWCfc2oJfdAr+Yv+AP9Cb7OJ3H/2JG1HNGz/84klThPVCc=);strokeColor=#bfbfbf;strokeWidth=2;shadow=1;points=[];labelBackgroundColor=none;rounded=0;html=1;whiteSpace=wrap;" vertex="1" parent="gvbPoHorT-MvjRSvkrZN-6">
          <mxGeometry width="260" height="1100" as="geometry" />
        </mxCell>
        <mxCell id="gvbPoHorT-MvjRSvkrZN-8" value="&lt;div style=&quot;font-size: 1px&quot;&gt;&lt;font style=&quot;font-size:16.93px;font-family:SimSun;color:#feffff;direction:ltr;letter-spacing:0px;line-height:120%;opacity:1&quot;&gt;客服（客户端）&lt;/font&gt;&lt;/div&gt;" style="verticalAlign=middle;align=center;vsdxID=8;fillColor=#4f88bb;gradientColor=none;shape=stencil(nZBLDoAgDERP0z3SIyjew0SURgSD+Lu9kMZoXLhwN9O+tukAlrNpJg1SzDH4QW/URgNYgZTkjA4UkwJUgGXng+6DX1zLfmoymdXo17xh5zmRJ6Q42BWCfc2oJfdAr+Yv+AP9Cb7OJ3H/2JG1HNGz/84klThPVCc=);strokeColor=#bfbfbf;strokeWidth=2;shadow=1;points=[];labelBackgroundColor=none;rounded=0;html=1;whiteSpace=wrap;" vertex="1" parent="gvbPoHorT-MvjRSvkrZN-6">
          <mxGeometry width="260" height="40" as="geometry" />
        </mxCell>
        <mxCell id="gvbPoHorT-MvjRSvkrZN-9" style="vsdxID=17;fillColor=none;gradientColor=none;strokeColor=none;strokeWidth=2;shadow=1;points=[];labelBackgroundColor=none;rounded=0;html=1;whiteSpace=wrap;" vertex="1" parent="gvbPoHorT-MvjRSvkrZN-1">
          <mxGeometry x="320" y="100" width="220" height="1100" as="geometry" />
        </mxCell>
        <mxCell id="gvbPoHorT-MvjRSvkrZN-10" style="vsdxID=18;fillColor=#4f88bb;gradientColor=none;fillOpacity=0;shape=stencil(nZBLDoAgDERP0z3SIyjew0SURgSD+Lu9kMZoXLhwN9O+tukAlrNpJg1SzDH4QW/URgNYgZTkjA4UkwJUgGXng+6DX1zLfmoymdXo17xh5zmRJ6Q42BWCfc2oJfdAr+Yv+AP9Cb7OJ3H/2JG1HNGz/84klThPVCc=);strokeColor=#bfbfbf;strokeWidth=2;shadow=1;points=[];labelBackgroundColor=none;rounded=0;html=1;whiteSpace=wrap;" vertex="1" parent="gvbPoHorT-MvjRSvkrZN-9">
          <mxGeometry width="220" height="1100" as="geometry" />
        </mxCell>
        <mxCell id="gvbPoHorT-MvjRSvkrZN-11" value="&lt;div style=&quot;font-size: 1px&quot;&gt;&lt;font style=&quot;font-size:16.93px;font-family:SimSun;color:#feffff;direction:ltr;letter-spacing:0px;line-height:120%;opacity:1&quot;&gt;FS&lt;br/&gt;&lt;/font&gt;&lt;/div&gt;" style="verticalAlign=middle;align=center;vsdxID=19;fillColor=#4f88bb;gradientColor=none;shape=stencil(nZBLDoAgDERP0z3SIyjew0SURgSD+Lu9kMZoXLhwN9O+tukAlrNpJg1SzDH4QW/URgNYgZTkjA4UkwJUgGXng+6DX1zLfmoymdXo17xh5zmRJ6Q42BWCfc2oJfdAr+Yv+AP9Cb7OJ3H/2JG1HNGz/84klThPVCc=);strokeColor=#bfbfbf;strokeWidth=2;shadow=1;points=[];labelBackgroundColor=none;rounded=0;html=1;whiteSpace=wrap;" vertex="1" parent="gvbPoHorT-MvjRSvkrZN-9">
          <mxGeometry width="220" height="40" as="geometry" />
        </mxCell>
        <mxCell id="gvbPoHorT-MvjRSvkrZN-12" style="vsdxID=20;fillColor=none;gradientColor=none;strokeColor=none;strokeWidth=2;shadow=1;points=[];labelBackgroundColor=none;rounded=0;html=1;whiteSpace=wrap;" vertex="1" parent="gvbPoHorT-MvjRSvkrZN-1">
          <mxGeometry x="540" y="100" width="340" height="1100" as="geometry" />
        </mxCell>
        <mxCell id="gvbPoHorT-MvjRSvkrZN-13" style="vsdxID=21;fillColor=#4f88bb;gradientColor=none;fillOpacity=0;shape=stencil(nZBLDoAgDERP0z3SIyjew0SURgSD+Lu9kMZoXLhwN9O+tukAlrNpJg1SzDH4QW/URgNYgZTkjA4UkwJUgGXng+6DX1zLfmoymdXo17xh5zmRJ6Q42BWCfc2oJfdAr+Yv+AP9Cb7OJ3H/2JG1HNGz/84klThPVCc=);strokeColor=#bfbfbf;strokeWidth=2;shadow=1;points=[];labelBackgroundColor=none;rounded=0;html=1;whiteSpace=wrap;" vertex="1" parent="gvbPoHorT-MvjRSvkrZN-12">
          <mxGeometry width="340" height="1100" as="geometry" />
        </mxCell>
        <mxCell id="gvbPoHorT-MvjRSvkrZN-14" value="&lt;div style=&quot;font-size: 1px&quot;&gt;&lt;font style=&quot;font-size:16.93px;font-family:SimSun;color:#feffff;direction:ltr;letter-spacing:0px;line-height:120%;opacity:1&quot;&gt;客户（&lt;/font&gt;&lt;font style=&quot;font-size:16.93px;font-family:Themed;color:#feffff;direction:ltr;letter-spacing:0px;line-height:120%;opacity:1&quot;&gt;网关&lt;/font&gt;&lt;font style=&quot;font-size:16.93px;font-family:Themed;color:#feffff;direction:ltr;letter-spacing:0px;line-height:120%;opacity:1&quot;&gt;）&lt;/font&gt;&lt;/div&gt;" style="verticalAlign=middle;align=center;vsdxID=22;fillColor=#4f88bb;gradientColor=none;shape=stencil(nZBLDoAgDERP0z3SIyjew0SURgSD+Lu9kMZoXLhwN9O+tukAlrNpJg1SzDH4QW/URgNYgZTkjA4UkwJUgGXng+6DX1zLfmoymdXo17xh5zmRJ6Q42BWCfc2oJfdAr+Yv+AP9Cb7OJ3H/2JG1HNGz/84klThPVCc=);strokeColor=#bfbfbf;strokeWidth=2;shadow=1;points=[];labelBackgroundColor=none;rounded=0;html=1;whiteSpace=wrap;" vertex="1" parent="gvbPoHorT-MvjRSvkrZN-12">
          <mxGeometry width="340" height="40" as="geometry" />
        </mxCell>
        <mxCell id="gvbPoHorT-MvjRSvkrZN-15" style="vsdxID=23;fillColor=none;gradientColor=none;strokeColor=none;strokeWidth=2;shadow=1;points=[];labelBackgroundColor=none;rounded=0;html=1;whiteSpace=wrap;" vertex="1" parent="gvbPoHorT-MvjRSvkrZN-1">
          <mxGeometry x="880" y="100" width="268" height="1100" as="geometry" />
        </mxCell>
        <mxCell id="gvbPoHorT-MvjRSvkrZN-16" style="vsdxID=24;fillColor=#4f88bb;gradientColor=none;fillOpacity=0;shape=stencil(nZBLDoAgDERP0z3SIyjew0SURgSD+Lu9kMZoXLhwN9O+tukAlrNpJg1SzDH4QW/URgNYgZTkjA4UkwJUgGXng+6DX1zLfmoymdXo17xh5zmRJ6Q42BWCfc2oJfdAr+Yv+AP9Cb7OJ3H/2JG1HNGz/84klThPVCc=);strokeColor=#bfbfbf;strokeWidth=2;shadow=1;points=[];labelBackgroundColor=none;rounded=0;html=1;whiteSpace=wrap;" vertex="1" parent="gvbPoHorT-MvjRSvkrZN-15">
          <mxGeometry width="268" height="1100" as="geometry" />
        </mxCell>
        <mxCell id="gvbPoHorT-MvjRSvkrZN-17" value="&lt;div style=&quot;font-size: 1px&quot;&gt;&lt;font style=&quot;font-size:16.93px;font-family:SimSun;color:#feffff;direction:ltr;letter-spacing:0px;line-height:120%;opacity:1&quot;&gt;ESL(http接口)&lt;/font&gt;&lt;/div&gt;" style="verticalAlign=middle;align=center;vsdxID=25;fillColor=#4f88bb;gradientColor=none;shape=stencil(nZBLDoAgDERP0z3SIyjew0SURgSD+Lu9kMZoXLhwN9O+tukAlrNpJg1SzDH4QW/URgNYgZTkjA4UkwJUgGXng+6DX1zLfmoymdXo17xh5zmRJ6Q42BWCfc2oJfdAr+Yv+AP9Cb7OJ3H/2JG1HNGz/84klThPVCc=);strokeColor=#bfbfbf;strokeWidth=2;shadow=1;points=[];labelBackgroundColor=none;rounded=0;html=1;whiteSpace=wrap;" vertex="1" parent="gvbPoHorT-MvjRSvkrZN-15">
          <mxGeometry width="268" height="40" as="geometry" />
        </mxCell>
        <mxCell id="gvbPoHorT-MvjRSvkrZN-18" style="vsdxID=65;fillColor=none;gradientColor=none;strokeColor=none;strokeWidth=2;shadow=1;points=[];labelBackgroundColor=none;rounded=0;html=1;whiteSpace=wrap;" vertex="1" parent="gvbPoHorT-MvjRSvkrZN-1">
          <mxGeometry x="1148" y="100" width="292" height="1100" as="geometry" />
        </mxCell>
        <mxCell id="gvbPoHorT-MvjRSvkrZN-19" style="vsdxID=66;fillColor=#4f88bb;gradientColor=none;fillOpacity=0;shape=stencil(nZBLDoAgDERP0z3SIyjew0SURgSD+Lu9kMZoXLhwN9O+tukAlrNpJg1SzDH4QW/URgNYgZTkjA4UkwJUgGXng+6DX1zLfmoymdXo17xh5zmRJ6Q42BWCfc2oJfdAr+Yv+AP9Cb7OJ3H/2JG1HNGz/84klThPVCc=);strokeColor=#bfbfbf;strokeWidth=2;shadow=1;points=[];labelBackgroundColor=none;rounded=0;html=1;whiteSpace=wrap;" vertex="1" parent="gvbPoHorT-MvjRSvkrZN-18">
          <mxGeometry width="292" height="1100" as="geometry" />
        </mxCell>
        <mxCell id="gvbPoHorT-MvjRSvkrZN-20" value="&lt;div style=&quot;font-size: 1px&quot;&gt;&lt;font style=&quot;font-size:16.93px;font-family:SimSun;color:#feffff;direction:ltr;letter-spacing:0px;line-height:120%;opacity:1&quot;&gt;EVENT_LIST&lt;br/&gt;&lt;/font&gt;&lt;/div&gt;" style="verticalAlign=middle;align=center;vsdxID=67;fillColor=#4f88bb;gradientColor=none;shape=stencil(nZBLDoAgDERP0z3SIyjew0SURgSD+Lu9kMZoXLhwN9O+tukAlrNpJg1SzDH4QW/URgNYgZTkjA4UkwJUgGXng+6DX1zLfmoymdXo17xh5zmRJ6Q42BWCfc2oJfdAr+Yv+AP9Cb7OJ3H/2JG1HNGz/84klThPVCc=);strokeColor=#bfbfbf;strokeWidth=2;shadow=1;points=[];labelBackgroundColor=none;rounded=0;html=1;whiteSpace=wrap;" vertex="1" parent="gvbPoHorT-MvjRSvkrZN-18">
          <mxGeometry width="292" height="40" as="geometry" />
        </mxCell>
        <mxCell id="gvbPoHorT-MvjRSvkrZN-21" style="vsdxID=13;fillColor=#44749f;gradientColor=none;shape=stencil(nZBLDoAgDERP0z3SIyDew0QUooJB/N1eSGM0LFywm2lf23QAxarbRQFna/BuVIfpggasgXNjtfImRAUoAUXvvBq822xHfmkTmdTs9rThpDmWJji7yFWMfEPoZOwHfZpF8A9aCGbno3h/jCYPIJYoPJQ3);strokeColor=#2d4d6a;strokeWidth=2;shadow=1;points=[];labelBackgroundColor=none;rounded=0;html=1;whiteSpace=wrap;" vertex="1" parent="gvbPoHorT-MvjRSvkrZN-1">
          <mxGeometry x="40" y="140" width="1400" height="1060" as="geometry" />
        </mxCell>
        <mxCell id="gvbPoHorT-MvjRSvkrZN-22" style="vsdxID=14;fillColor=none;gradientColor=none;strokeColor=none;shadow=1;points=[];labelBackgroundColor=none;rounded=0;html=1;whiteSpace=wrap;" vertex="1" parent="gvbPoHorT-MvjRSvkrZN-1">
          <mxGeometry x="40" y="140" width="1400" height="1060" as="geometry" />
        </mxCell>
        <mxCell id="gvbPoHorT-MvjRSvkrZN-23" value="&lt;div style=&quot;font-size: 1px&quot;&gt;&lt;/div&gt;" style="verticalAlign=middle;align=center;vsdxID=15;rotation=90;fillColor=none;gradientColor=none;fillOpacity=0;strokeColor=none;strokeWidth=2;shadow=1;spacingTop=-1;spacingBottom=-1;spacingLeft=-1;spacingRight=-1;points=[];labelBackgroundColor=none;rounded=0;html=1;whiteSpace=wrap;" vertex="1" parent="gvbPoHorT-MvjRSvkrZN-22">
          <mxGeometry x="170" y="-170" width="1060" height="1400" as="geometry" />
        </mxCell>
        <mxCell id="gvbPoHorT-MvjRSvkrZN-24" value="&lt;div style=&quot;font-size: 1px&quot;&gt;&lt;p style=&quot;align:left;margin-left:0;margin-right:0;margin-top:0px;margin-bottom:0px;text-indent:0;valign:middle;direction:ltr;&quot;&gt;&lt;font style=&quot;font-size:16.93px;font-family:SimSun;color:#feffff;direction:ltr;letter-spacing:0px;line-height:120%;opacity:1&quot;&gt;阶段&lt;br/&gt;&lt;/font&gt;&lt;/p&gt;&lt;/div&gt;" style="verticalAlign=middle;align=left;vsdxID=16;rotation=270;fillColor=#4f88bb;gradientColor=none;shape=stencil(nZBLDoAgDERP0z3SIyjew0SURgSD+Lu9kMZoXLhwN9O+tukAlrNpJg1SzDH4QW/URgNYgZTkjA4UkwJUgGXng+6DX1zLfmoymdXo17xh5zmRJ6Q42BWCfc2oJfdAr+Yv+AP9Cb7OJ3H/2JG1HNGz/84klThPVCc=);strokeColor=#bfbfbf;strokeWidth=2;shadow=1;spacingTop=-1;spacingBottom=-1;spacingLeft=-1;spacingRight=-1;points=[];labelBackgroundColor=none;rounded=0;html=1;whiteSpace=wrap;" vertex="1" parent="gvbPoHorT-MvjRSvkrZN-22">
          <mxGeometry x="-500" y="540" width="1100" height="20" as="geometry" />
        </mxCell>
        <UserObject label="&lt;div style=&quot;font-size: 1px&quot;&gt;&lt;font style=&quot;font-size:11.29px;font-family:SimSun;color:#feffff;direction:ltr;letter-spacing:0px;line-height:120%;opacity:1&quot;&gt;拒绝&lt;br/&gt;&lt;/font&gt;&lt;/div&gt;" Function="FS" id="gvbPoHorT-MvjRSvkrZN-25">
          <mxCell style="verticalAlign=middle;align=center;vsdxID=29;fillColor=#5b9bd5;gradientColor=none;shape=stencil(nZBLDoAgDERP0z3SIyjew0SURgSD+Lu9kMZoXLhwN9O+tukAlrNpJg1SzDH4QW/URgNYgZTkjA4UkwJUgGXng+6DX1zLfmoymdXo17xh5zmRJ6Q42BWCfc2oJfdAr+Yv+AP9Cb7OJ3H/2JG1HNGz/84klThPVCc=);strokeColor=#c8c8c8;spacingTop=-1;spacingBottom=-1;spacingLeft=-1;spacingRight=-1;points=[[0,0.5,0],[1,0.5,0],[0.5,1,0],[0.5,0,0]];labelBackgroundColor=none;rounded=0;html=1;whiteSpace=wrap;" vertex="1" parent="gvbPoHorT-MvjRSvkrZN-1">
            <mxGeometry x="410" y="312" width="100" height="60" as="geometry" />
          </mxCell>
        </UserObject>
        <UserObject label="" Function="FS" id="gvbPoHorT-MvjRSvkrZN-26">
          <mxCell style="vsdxID=30;fillColor=#44749f;gradientColor=none;shape=stencil(UzV2Ls5ILEhVNTIoLinKz04tz0wpyVA1dlE1MsrMy0gtyiwBslSNXVWNndPyi1LTi/JL81Ig/IJEkEoQKze/DGRCBUSfAUiHkUElhGcK4bpBVOZk5iGpNEVVikeloQHZpsK0YlWLz1QgA+HFtMycHEgIIcujBwlQCBKcxq4A);strokeColor=#41719c;spacingTop=-1;spacingBottom=-1;spacingLeft=-1;spacingRight=-1;points=[[0,0.5,0],[1,0.5,0],[0.5,0,0],[0.5,1,0]];labelBackgroundColor=none;rounded=0;html=1;whiteSpace=wrap;" vertex="1" parent="gvbPoHorT-MvjRSvkrZN-1">
            <mxGeometry x="410" y="170" width="100" height="60" as="geometry" />
          </mxCell>
        </UserObject>
        <mxCell id="gvbPoHorT-MvjRSvkrZN-27" value="&lt;div style=&quot;font-size: 1px&quot;&gt;&lt;p style=&quot;align:center;margin-left:0;margin-right:0;margin-top:0px;margin-bottom:0px;text-indent:0;valign:middle;direction:ltr;&quot;&gt;&lt;font style=&quot;font-size:11.29px;font-family:SimSun;color:#feffff;direction:ltr;letter-spacing:0px;line-height:120%;opacity:1&quot;&gt;验证权限&lt;br/&gt;&lt;/font&gt;&lt;/p&gt;&lt;p style=&quot;align:center;margin-left:0;margin-right:0;margin-top:0px;margin-bottom:0px;text-indent:0;valign:middle;direction:ltr;&quot;&gt;&lt;font style=&quot;font-size:11.29px;font-family:SimSun;color:#feffff;direction:ltr;letter-spacing:0px;line-height:120%;opacity:1&quot;&gt;合法性&lt;/font&gt;&lt;font style=&quot;font-size:11.29px;font-family:Themed;color:#feffff;direction:ltr;letter-spacing:0px;line-height:120%;opacity:1&quot;&gt;&lt;br/&gt;&lt;/font&gt;&lt;/p&gt;&lt;/div&gt;" style="text;vsdxID=30;fillColor=none;gradientColor=none;strokeColor=none;spacingTop=-1;spacingBottom=-1;spacingLeft=-1;spacingRight=-1;points=[[0,0.5,0],[1,0.5,0],[0.5,0,0],[0.5,1,0]];labelBackgroundColor=none;rounded=0;html=1;whiteSpace=wrap;verticalAlign=middle;align=center;;html=1;" vertex="1" parent="gvbPoHorT-MvjRSvkrZN-26">
          <mxGeometry x="8.33" y="7.5" width="83.33" height="45" as="geometry" />
        </mxCell>
        <UserObject label="" Function="客服（客户端）" id="gvbPoHorT-MvjRSvkrZN-28">
          <mxCell style="vsdxID=35;fillColor=#44749f;gradientColor=none;shape=stencil(UzV2Ls5ILEhVNTIoLinKz04tz0wpyVA1dlE1MsrMy0gtyiwBslSNXVWNndPyi1LTi/JL81Ig/IJEkEoQKze/DGRCBUSfAUiHkUElhGcK4bpBVOZk5iGpNEVVikeloQHZpsK0YlWLz1QgA+HFtMycHEgIIcujBwlQCBKcxq4A);strokeColor=#41719c;spacingTop=-1;spacingBottom=-1;spacingLeft=-1;spacingRight=-1;points=[[0,0.5,0],[1,0.5,0],[0.5,0,0],[0.5,1,0]];labelBackgroundColor=none;rounded=0;html=1;whiteSpace=wrap;" vertex="1" parent="gvbPoHorT-MvjRSvkrZN-1">
            <mxGeometry x="140" y="312" width="100" height="60" as="geometry" />
          </mxCell>
        </UserObject>
        <mxCell id="gvbPoHorT-MvjRSvkrZN-29" value="&lt;div style=&quot;font-size: 1px&quot;&gt;&lt;font style=&quot;font-size:11.29px;font-family:SimSun;color:#feffff;direction:ltr;letter-spacing:0px;line-height:120%;opacity:1&quot;&gt;判断注册状态&lt;br/&gt;&lt;/font&gt;&lt;/div&gt;" style="text;vsdxID=35;fillColor=none;gradientColor=none;strokeColor=none;spacingTop=-1;spacingBottom=-1;spacingLeft=-1;spacingRight=-1;points=[[0,0.5,0],[1,0.5,0],[0.5,0,0],[0.5,1,0]];labelBackgroundColor=none;rounded=0;html=1;whiteSpace=wrap;verticalAlign=middle;align=center;;html=1;" vertex="1" parent="gvbPoHorT-MvjRSvkrZN-28">
          <mxGeometry x="8.33" y="7.5" width="83.33" height="45" as="geometry" />
        </mxCell>
        <UserObject label="&lt;div style=&quot;font-size: 1px&quot;&gt;&lt;font style=&quot;font-size:11.29px;font-family:SimSun;color:#feffff;direction:ltr;letter-spacing:0px;line-height:120%;opacity:1&quot;&gt;根据安全认证令牌将其加密后注册&lt;br/&gt;&lt;/font&gt;&lt;/div&gt;" Function="客服（客户端）" id="gvbPoHorT-MvjRSvkrZN-30">
          <mxCell style="verticalAlign=middle;align=center;vsdxID=37;fillColor=#5b9bd5;gradientColor=none;shape=stencil(nZBLDoAgDERP0z3SIyjew0SURgSD+Lu9kMZoXLhwN9O+tukAlrNpJg1SzDH4QW/URgNYgZTkjA4UkwJUgGXng+6DX1zLfmoymdXo17xh5zmRJ6Q42BWCfc2oJfdAr+Yv+AP9Cb7OJ3H/2JG1HNGz/84klThPVCc=);strokeColor=#c8c8c8;spacingTop=-1;spacingBottom=-1;spacingLeft=-1;spacingRight=-1;points=[[0,0.5,0],[1,0.5,0],[0.5,1,0],[0.5,0,0]];labelBackgroundColor=none;rounded=0;html=1;whiteSpace=wrap;" vertex="1" parent="gvbPoHorT-MvjRSvkrZN-1">
            <mxGeometry x="140" y="457" width="100" height="60" as="geometry" />
          </mxCell>
        </UserObject>
        <UserObject label="" Function="FS" id="gvbPoHorT-MvjRSvkrZN-31">
          <mxCell style="vsdxID=39;fillColor=#44749f;gradientColor=none;shape=stencil(UzV2Ls5ILEhVNTIoLinKz04tz0wpyVA1dlE1MsrMy0gtyiwBslSNXVWNndPyi1LTi/JL81Ig/IJEkEoQKze/DGRCBUSfAUiHkUElhGcK4bpBVOZk5iGpNEVVikeloQHZpsK0YlWLz1QgA+HFtMycHEgIIcujBwlQCBKcxq4A);strokeColor=#41719c;spacingTop=-1;spacingBottom=-1;spacingLeft=-1;spacingRight=-1;points=[[0,0.5,0],[1,0.5,0],[0.5,0,0],[0.5,1,0]];labelBackgroundColor=none;rounded=0;html=1;whiteSpace=wrap;" vertex="1" parent="gvbPoHorT-MvjRSvkrZN-1">
            <mxGeometry x="410" y="457" width="100" height="60" as="geometry" />
          </mxCell>
        </UserObject>
        <mxCell id="gvbPoHorT-MvjRSvkrZN-32" value="&lt;div style=&quot;font-size: 1px&quot;&gt;&lt;font style=&quot;font-size:11.29px;font-family:SimSun;color:#feffff;direction:ltr;letter-spacing:0px;line-height:120%;opacity:1&quot;&gt;验证&lt;/font&gt;&lt;font style=&quot;font-size:11.29px;font-family:Themed;color:#feffff;direction:ltr;letter-spacing:0px;line-height:120%;opacity:1&quot;&gt;权限&lt;br/&gt;&lt;/font&gt;&lt;font style=&quot;font-size:11.29px;font-family:Themed;color:#feffff;direction:ltr;letter-spacing:0px;line-height:120%;opacity:1&quot;&gt;合法性&lt;br/&gt;&lt;/font&gt;&lt;/div&gt;" style="text;vsdxID=39;fillColor=none;gradientColor=none;strokeColor=none;spacingTop=-1;spacingBottom=-1;spacingLeft=-1;spacingRight=-1;points=[[0,0.5,0],[1,0.5,0],[0.5,0,0],[0.5,1,0]];labelBackgroundColor=none;rounded=0;html=1;whiteSpace=wrap;verticalAlign=middle;align=center;;html=1;" vertex="1" parent="gvbPoHorT-MvjRSvkrZN-31">
          <mxGeometry x="8.33" y="7.5" width="83.33" height="45" as="geometry" />
        </mxCell>
        <UserObject label="&lt;div style=&quot;font-size: 1px&quot;&gt;&lt;font style=&quot;font-size:11.29px;font-family:SimSun;color:#feffff;direction:ltr;letter-spacing:0px;line-height:120%;opacity:1&quot;&gt;保存到PG数据库&lt;br/&gt;注册成功&lt;br/&gt;&lt;/font&gt;&lt;/div&gt;" Function="FS" id="gvbPoHorT-MvjRSvkrZN-33">
          <mxCell style="verticalAlign=middle;align=center;vsdxID=41;fillColor=#5b9bd5;gradientColor=none;shape=stencil(nZBLDoAgDERP0z3SIyjew0SURgSD+Lu9kMZoXLhwN9O+tukAlrNpJg1SzDH4QW/URgNYgZTkjA4UkwJUgGXng+6DX1zLfmoymdXo17xh5zmRJ6Q42BWCfc2oJfdAr+Yv+AP9Cb7OJ3H/2JG1HNGz/84klThPVCc=);strokeColor=#c8c8c8;spacingTop=-1;spacingBottom=-1;spacingLeft=-1;spacingRight=-1;points=[[0,0.5,0],[1,0.5,0],[0.5,1,0],[0.5,0,0]];labelBackgroundColor=none;rounded=0;html=1;whiteSpace=wrap;" vertex="1" parent="gvbPoHorT-MvjRSvkrZN-1">
            <mxGeometry x="410" y="599" width="100" height="60" as="geometry" />
          </mxCell>
        </UserObject>
        <UserObject label="&lt;div style=&quot;font-size: 1px&quot;&gt;&lt;font style=&quot;font-size:11.29px;font-family:SimSun;color:#feffff;direction:ltr;letter-spacing:0px;line-height:120%;opacity:1&quot;&gt;注册&lt;/font&gt;&lt;font style=&quot;font-size:11.29px;font-family:Themed;color:#feffff;direction:ltr;letter-spacing:0px;line-height:120%;opacity:1&quot;&gt;&lt;br/&gt;&lt;/font&gt;&lt;/div&gt;" Function="客服（客户端）" id="gvbPoHorT-MvjRSvkrZN-34">
          <mxCell style="verticalAlign=middle;align=center;vsdxID=44;fillColor=#44749f;gradientColor=none;shape=stencil(tVLLDsIgEPwajiQIMfFe638Qu22JCM2Ctv69kK0Rm9qDibeZndkXC1NV6PUATIoQ0V9gNE3smToyKY3rAU1MiKmaqar1CB36m2uIDzo7M7r6e64wUZ4UOUWKB9GdIH4irzWu8B42vRrPScNFXZzN+5mvl3qJXE8mcPRRR+Pdh2Y1dsBTE95a3c0TkBRGgKEIb6wg1/r+ssCXd/vLCgm8z9caa+n6pb48dwrRV1H1Ew==);strokeColor=#41719c;spacingTop=-1;spacingBottom=-1;spacingLeft=-1;spacingRight=-1;points=[[0.5,1,0],[0.5,0,0],[0,0.5,0],[1,0.5,0]];labelBackgroundColor=none;rounded=0;html=1;whiteSpace=wrap;" vertex="1" parent="gvbPoHorT-MvjRSvkrZN-1">
            <mxGeometry x="140" y="180" width="100" height="40" as="geometry" />
          </mxCell>
        </UserObject>
        <UserObject label="&lt;div style=&quot;font-size: 1px&quot;&gt;&lt;font style=&quot;font-size:11.29px;font-family:SimSun;color:#feffff;direction:ltr;letter-spacing:0px;line-height:120%;opacity:1&quot;&gt;结束&lt;br/&gt;&lt;/font&gt;&lt;/div&gt;" Function="客服（客户端）" id="gvbPoHorT-MvjRSvkrZN-35">
          <mxCell style="verticalAlign=middle;align=center;vsdxID=45;fillColor=#44749f;gradientColor=none;shape=stencil(tVLLDsIgEPwajiQIMfFe638Qu22JCM2Ctv69kK0Rm9qDibeZndkXC1NV6PUATIoQ0V9gNE3smToyKY3rAU1MiKmaqar1CB36m2uIDzo7M7r6e64wUZ4UOUWKB9GdIH4irzWu8B42vRrPScNFXZzN+5mvl3qJXE8mcPRRR+Pdh2Y1dsBTE95a3c0TkBRGgKEIb6wg1/r+ssCXd/vLCgm8z9caa+n6pb48dwrRV1H1Ew==);strokeColor=#41719c;spacingTop=-1;spacingBottom=-1;spacingLeft=-1;spacingRight=-1;points=[[0.5,1,0],[0.5,0,0],[0,0.5,0],[1,0.5,0]];labelBackgroundColor=none;rounded=0;html=1;whiteSpace=wrap;" vertex="1" parent="gvbPoHorT-MvjRSvkrZN-1">
            <mxGeometry x="140" y="609" width="100" height="40" as="geometry" />
          </mxCell>
        </UserObject>
        <UserObject label="" Function="ESL(http接口)" id="gvbPoHorT-MvjRSvkrZN-36">
          <mxCell style="vsdxID=60;fillColor=#44749f;gradientColor=none;shape=stencil(UzV2Ls5ILEhVNTIoLinKz04tz0wpyVA1dlE1MsrMy0gtyiwBslSNXVWNndPyi1LTi/JL81Ig/IJEkEoQKze/DGRCBUSfAUiHkUElhGcK4bpBVOZk5iGpNEVVikeloQHZpsK0YlWLz1QgA+HFtMycHEgIIcujBwlQCBKcxq4A);strokeColor=#41719c;spacingTop=-1;spacingBottom=-1;spacingLeft=-1;spacingRight=-1;points=[[0,0.5,0],[1,0.5,0],[0.5,0,0],[0.5,1,0]];labelBackgroundColor=none;rounded=0;html=1;whiteSpace=wrap;" vertex="1" parent="gvbPoHorT-MvjRSvkrZN-1">
            <mxGeometry x="964" y="457" width="100" height="60" as="geometry" />
          </mxCell>
        </UserObject>
        <mxCell id="gvbPoHorT-MvjRSvkrZN-37" value="&lt;div style=&quot;font-size: 1px&quot;&gt;&lt;font style=&quot;font-size:11.29px;font-family:SimSun;color:#feffff;direction:ltr;letter-spacing:0px;line-height:120%;opacity:1&quot;&gt;验证账号密码&lt;/font&gt;&lt;font style=&quot;font-size:11.29px;font-family:Themed;color:#feffff;direction:ltr;letter-spacing:0px;line-height:120%;opacity:1&quot;&gt;&lt;br/&gt;&lt;/font&gt;&lt;/div&gt;" style="text;vsdxID=60;fillColor=none;gradientColor=none;strokeColor=none;spacingTop=-1;spacingBottom=-1;spacingLeft=-1;spacingRight=-1;points=[[0,0.5,0],[1,0.5,0],[0.5,0,0],[0.5,1,0]];labelBackgroundColor=none;rounded=0;html=1;whiteSpace=wrap;verticalAlign=middle;align=center;;html=1;" vertex="1" parent="gvbPoHorT-MvjRSvkrZN-36">
          <mxGeometry x="8.33" y="7.5" width="83.33" height="45" as="geometry" />
        </mxCell>
        <UserObject label="&lt;div style=&quot;font-size: 1px&quot;&gt;&lt;font style=&quot;font-size:11.29px;font-family:SimSun;color:#feffff;direction:ltr;letter-spacing:0px;line-height:120%;opacity:1&quot;&gt;返回注册信息&lt;br/&gt;&lt;/font&gt;&lt;/div&gt;" Function="ESL(http接口)" id="gvbPoHorT-MvjRSvkrZN-38">
          <mxCell style="verticalAlign=middle;align=center;vsdxID=62;fillColor=#5b9bd5;gradientColor=none;shape=stencil(nZBLDoAgDERP0z3SIyjew0SURgSD+Lu9kMZoXLhwN9O+tukAlrNpJg1SzDH4QW/URgNYgZTkjA4UkwJUgGXng+6DX1zLfmoymdXo17xh5zmRJ6Q42BWCfc2oJfdAr+Yv+AP9Cb7OJ3H/2JG1HNGz/84klThPVCc=);strokeColor=#c8c8c8;spacingTop=-1;spacingBottom=-1;spacingLeft=-1;spacingRight=-1;points=[[0,0.5,0],[1,0.5,0],[0.5,1,0],[0.5,0,0]];labelBackgroundColor=none;rounded=0;html=1;whiteSpace=wrap;" vertex="1" parent="gvbPoHorT-MvjRSvkrZN-1">
            <mxGeometry x="964" y="599" width="100" height="60" as="geometry" />
          </mxCell>
        </UserObject>
        <mxCell id="gvbPoHorT-MvjRSvkrZN-39" value="连接线" parent="0" />
        <mxCell id="gvbPoHorT-MvjRSvkrZN-40" style="vsdxID=64;edgeStyle=none;startArrow=none;endArrow=block;startSize=5;endSize=5;strokeColor=#5b9bd5;spacingTop=0;spacingBottom=0;spacingLeft=0;spacingRight=0;verticalAlign=middle;html=1;labelBackgroundColor=#ffffff;rounded=0;exitX=0.5;exitY=1;exitDx=0;exitDy=0;exitPerimeter=0;entryX=0.5;entryY=0;entryDx=0;entryDy=0;entryPerimeter=0;" edge="1" parent="gvbPoHorT-MvjRSvkrZN-39" source="gvbPoHorT-MvjRSvkrZN-36" target="gvbPoHorT-MvjRSvkrZN-38">
          <mxGeometry relative="1" as="geometry">
            <mxPoint x="10" as="offset" />
            <Array as="points" />
          </mxGeometry>
        </mxCell>
        <mxCell id="gvbPoHorT-MvjRSvkrZN-41" value="&lt;div style=&quot;font-size: 1px&quot;&gt;&lt;font style=&quot;font-size:11.29px;font-family:SimSun;color:#44749f;direction:ltr;letter-spacing:0px;line-height:120%;opacity:1&quot;&gt;注册成功（http接口）&lt;br/&gt;&lt;/font&gt;&lt;/div&gt;" style="vsdxID=63;edgeStyle=none;startArrow=none;endArrow=block;startSize=5;endSize=5;strokeColor=#5b9bd5;spacingTop=0;spacingBottom=0;spacingLeft=0;spacingRight=0;verticalAlign=middle;html=1;labelBackgroundColor=#ffffff;rounded=0;align=center;exitX=0;exitY=0.5;exitDx=0;exitDy=0;exitPerimeter=0;entryX=1;entryY=0.5;entryDx=0;entryDy=0;entryPerimeter=0;" edge="1" parent="gvbPoHorT-MvjRSvkrZN-39" source="gvbPoHorT-MvjRSvkrZN-38" target="gvbPoHorT-MvjRSvkrZN-33">
          <mxGeometry relative="1" as="geometry">
            <mxPoint as="offset" />
            <Array as="points" />
          </mxGeometry>
        </mxCell>
        <mxCell id="gvbPoHorT-MvjRSvkrZN-42" value="&lt;div style=&quot;font-size: 1px&quot;&gt;&lt;font style=&quot;font-size:11.29px;font-family:SimSun;color:#44749f;direction:ltr;letter-spacing:0px;line-height:120%;opacity:1&quot;&gt;合法令牌（http接口）&lt;br/&gt;&lt;/font&gt;&lt;/div&gt;" style="vsdxID=58;edgeStyle=none;startArrow=none;endArrow=block;startSize=5;endSize=5;strokeColor=#5b9bd5;spacingTop=0;spacingBottom=0;spacingLeft=0;spacingRight=0;verticalAlign=middle;html=1;labelBackgroundColor=#ffffff;rounded=0;align=center;exitX=1;exitY=0.5;exitDx=0;exitDy=0;exitPerimeter=0;entryX=0;entryY=0.5;entryDx=0;entryDy=0;entryPerimeter=0;" edge="1" parent="gvbPoHorT-MvjRSvkrZN-39" source="gvbPoHorT-MvjRSvkrZN-31" target="gvbPoHorT-MvjRSvkrZN-36">
          <mxGeometry relative="1" as="geometry">
            <mxPoint as="offset" />
            <Array as="points" />
          </mxGeometry>
        </mxCell>
        <mxCell id="gvbPoHorT-MvjRSvkrZN-43" value="&lt;div style=&quot;font-size: 1px&quot;&gt;&lt;font style=&quot;font-size:11.29px;font-family:SimSun;color:#44749f;direction:ltr;letter-spacing:0px;line-height:120%;opacity:1&quot;&gt;200 OK&lt;br/&gt;&lt;/font&gt;&lt;/div&gt;" style="vsdxID=48;edgeStyle=none;startArrow=none;endArrow=block;startSize=5;endSize=5;strokeColor=#5b9bd5;spacingTop=0;spacingBottom=0;spacingLeft=0;spacingRight=0;verticalAlign=middle;html=1;labelBackgroundColor=#ffffff;rounded=0;align=center;exitX=0;exitY=0.5;exitDx=0;exitDy=0;exitPerimeter=0;entryX=1;entryY=0.5;entryDx=0;entryDy=0;entryPerimeter=0;" edge="1" parent="gvbPoHorT-MvjRSvkrZN-39" source="gvbPoHorT-MvjRSvkrZN-33" target="gvbPoHorT-MvjRSvkrZN-35">
          <mxGeometry relative="1" as="geometry">
            <mxPoint as="offset" />
            <Array as="points" />
          </mxGeometry>
        </mxCell>
        <mxCell id="gvbPoHorT-MvjRSvkrZN-44" value="&lt;div style=&quot;font-size: 1px&quot;&gt;&lt;font style=&quot;font-size:11.29px;font-family:SimSun;color:#44749f;direction:ltr;letter-spacing:0px;line-height:120%;opacity:1&quot;&gt;REGISTER&lt;br/&gt;&lt;/font&gt;&lt;/div&gt;" style="vsdxID=47;edgeStyle=none;startArrow=none;endArrow=block;startSize=5;endSize=5;strokeColor=#5b9bd5;spacingTop=0;spacingBottom=0;spacingLeft=0;spacingRight=0;verticalAlign=middle;html=1;labelBackgroundColor=#ffffff;rounded=0;align=center;exitX=1;exitY=0.5;exitDx=0;exitDy=0;exitPerimeter=0;entryX=0;entryY=0.5;entryDx=0;entryDy=0;entryPerimeter=0;" edge="1" parent="gvbPoHorT-MvjRSvkrZN-39" source="gvbPoHorT-MvjRSvkrZN-34" target="gvbPoHorT-MvjRSvkrZN-26">
          <mxGeometry relative="1" as="geometry">
            <mxPoint as="offset" />
            <Array as="points" />
          </mxGeometry>
        </mxCell>
        <mxCell id="gvbPoHorT-MvjRSvkrZN-45" value="&lt;div style=&quot;font-size: 1px&quot;&gt;&lt;font style=&quot;font-size:11.29px;font-family:SimSun;color:#4f88bb;direction:ltr;letter-spacing:0px;line-height:120%;opacity:1&quot;&gt;无令牌&lt;/font&gt;&lt;font style=&quot;font-size:11.29px;font-family:Themed;color:#44749f;direction:ltr;letter-spacing:0px;line-height:120%;opacity:1&quot;&gt;&lt;br/&gt;&lt;/font&gt;&lt;/div&gt;" style="vsdxID=33;edgeStyle=none;startArrow=none;endArrow=block;startSize=5;endSize=5;strokeColor=#5b9bd5;spacingTop=0;spacingBottom=0;spacingLeft=0;spacingRight=0;verticalAlign=middle;html=1;labelBackgroundColor=#ffffff;rounded=0;align=center;exitX=0.5;exitY=1;exitDx=0;exitDy=0;exitPerimeter=0;entryX=0.5;entryY=0;entryDx=0;entryDy=0;entryPerimeter=0;" edge="1" parent="gvbPoHorT-MvjRSvkrZN-39" source="gvbPoHorT-MvjRSvkrZN-26" target="gvbPoHorT-MvjRSvkrZN-25">
          <mxGeometry relative="1" as="geometry">
            <mxPoint x="10" as="offset" />
            <Array as="points" />
          </mxGeometry>
        </mxCell>
        <mxCell id="gvbPoHorT-MvjRSvkrZN-46" value="&lt;div style=&quot;font-size: 1px&quot;&gt;&lt;font style=&quot;font-size:11.29px;font-family:SimSun;color:#44749f;direction:ltr;letter-spacing:0px;line-height:120%;opacity:1&quot;&gt;401&lt;br/&gt;携带安全认证所需的令牌&lt;br/&gt;&lt;/font&gt;&lt;/div&gt;" style="vsdxID=36;edgeStyle=none;startArrow=none;endArrow=block;startSize=5;endSize=5;strokeColor=#5b9bd5;spacingTop=0;spacingBottom=0;spacingLeft=0;spacingRight=0;verticalAlign=middle;html=1;labelBackgroundColor=#ffffff;rounded=0;align=center;exitX=0;exitY=0.5;exitDx=0;exitDy=0;exitPerimeter=0;entryX=1;entryY=0.5;entryDx=0;entryDy=0;entryPerimeter=0;" edge="1" parent="gvbPoHorT-MvjRSvkrZN-39" source="gvbPoHorT-MvjRSvkrZN-25" target="gvbPoHorT-MvjRSvkrZN-28">
          <mxGeometry relative="1" as="geometry">
            <mxPoint as="offset" />
            <Array as="points" />
          </mxGeometry>
        </mxCell>
        <mxCell id="gvbPoHorT-MvjRSvkrZN-47" style="vsdxID=38;edgeStyle=none;startArrow=none;endArrow=block;startSize=5;endSize=5;strokeColor=#5b9bd5;spacingTop=0;spacingBottom=0;spacingLeft=0;spacingRight=0;verticalAlign=middle;html=1;labelBackgroundColor=#ffffff;rounded=0;exitX=0.5;exitY=1;exitDx=0;exitDy=0;exitPerimeter=0;entryX=0.5;entryY=0;entryDx=0;entryDy=0;entryPerimeter=0;" edge="1" parent="gvbPoHorT-MvjRSvkrZN-39" source="gvbPoHorT-MvjRSvkrZN-28" target="gvbPoHorT-MvjRSvkrZN-30">
          <mxGeometry relative="1" as="geometry">
            <mxPoint x="10" y="-1" as="offset" />
            <Array as="points" />
          </mxGeometry>
        </mxCell>
        <mxCell id="gvbPoHorT-MvjRSvkrZN-48" value="&lt;div style=&quot;font-size: 1px&quot;&gt;&lt;font style=&quot;font-size:11.29px;font-family:SimSun;color:#44749f;direction:ltr;letter-spacing:0px;line-height:120%;opacity:1&quot;&gt;REGISTER&lt;br/&gt;&lt;/font&gt;&lt;/div&gt;" style="vsdxID=40;edgeStyle=none;startArrow=none;endArrow=block;startSize=5;endSize=5;strokeColor=#5b9bd5;spacingTop=0;spacingBottom=0;spacingLeft=0;spacingRight=0;verticalAlign=middle;html=1;labelBackgroundColor=#ffffff;rounded=0;align=center;exitX=1;exitY=0.5;exitDx=0;exitDy=0;exitPerimeter=0;entryX=0;entryY=0.5;entryDx=0;entryDy=0;entryPerimeter=0;" edge="1" parent="gvbPoHorT-MvjRSvkrZN-39" source="gvbPoHorT-MvjRSvkrZN-30" target="gvbPoHorT-MvjRSvkrZN-31">
          <mxGeometry relative="1" as="geometry">
            <mxPoint as="offset" />
            <Array as="points" />
          </mxGeometry>
        </mxCell>
      </root>
    </mxGraphModel>
  </diagram>
</mxfile>
